<svg height="512" viewBox="0 0 60 60" width="512" xmlns="http://www.w3.org/2000/svg"><g id="Page-1" fill="none" fill-rule="evenodd"><g id="066---Comment-Note" fill-rule="nonzero"><path id="Shape" d="m30 17h-23c-3.3137085 0-6 2.6862915-6 6v22c0 3.3137085 2.6862915 6 6 6h15c.6286808-.0023633 1.2216582.2919017 1.6.794l4.821 6.406c.3695939.5018496.9557403.7981243 1.579.7981243s1.2094061-.2962747 1.579-.7981243l4.821-6.4c.3777088-.5036117.9704854-.8 1.6-.8h15c3.3137085 0 6-2.6862915 6-6v-22c0-3.3137085-2.6862915-6-6-6z" fill="#e8edfc"/><path id="Shape" d="m33.4 51.8-4.821 6.4c-.024.032-.054.053-.079.083.3829447.4640456.9583136.7258038 1.559747.7095911s1.1618646-.3085885 1.519253-.7925911l4.821-6.4c.3777088-.5036117.9704854-.8 1.6-.8h-3c-.6295146 0-1.2222912.2963883-1.6.8z" fill="#cad9fc"/><path id="Shape" d="m53 17h-3c3.3137085 0 6 2.6862915 6 6v22c0 3.3137085-2.6862915 6-6 6h3c3.3137085 0 6-2.6862915 6-6v-22c0-3.3137085-2.6862915-6-6-6z" fill="#cad9fc"/><path id="Shape" d="m30.25 34.46c.3755541-.3751365.5865733-.8841815.5865733-1.415s-.2110192-1.0398635-.5865733-1.415c-.3535122-.3553333-.8290669-.5627181-1.33-.58-.4946739-.0272694-.8881383-.4250576-.91-.92-.0368433-.7929452-.5375815-1.4896709-1.2774074-1.7773809-.739826-.2877101-1.579713-.1123387-2.1425926.4473809l19.1-19.09 4.95 4.95.7.71z" fill="#e8edfc"/><path id="Shape" d="m52.17 12.54-2.83 2.83-.7-.71-4.95-4.95 2.82-2.83z" fill="#a4c2f7"/><path id="Shape" d="m57.12 7.59-4.95 4.95-5.66-5.66 4.95-4.95c1.1751514-1.16986609 3.0748486-1.16986609 4.25 0l1.41 1.42c1.1698135 1.17127019 1.1698135 3.06872981 0 4.24z" fill="#e8edfc"/><path id="Shape" d="m57.12 3.35-1.41-1.42c-.9635007-.95674595-2.4494886-1.14705742-3.623-.464.2270912.12671519.4365502.28271676.623.464l1.41 1.42c1.1698135 1.17127019 1.1698135 3.06872981 0 4.24l-3.45 3.45 1.5 1.5 4.95-4.95c1.1698135-1.17127019 1.1698135-3.06872981 0-4.24z" fill="#cad9fc"/><path id="Shape" d="m30.25 34.46-4.42 2.04c-.238563-.7719497-.6645756-1.4728092-1.24-2.04-.5725096-.5686657-1.2716011-.9936037-2.04-1.24l2.04-4.42c.5628796-.5597196 1.4027666-.735091 2.1425926-.4473809.7398259.28771 1.2405641.9844357 1.2774074 1.7773809.0218617.4949424.4153261.8927306.91.92.5009331.0172819.9764878.2246667 1.33.58.3755541.3751365.5865733.8841815.5865733 1.415s-.2110192 1.0398635-.5865733 1.415z" fill="#e8edfc"/><path id="Shape" d="m25.83 36.5-3.62 1.68c-.3844854.1904922-.8476428.1144645-1.1510537-.1889463-.3034108-.3034109-.3794385-.7665683-.1889463-1.1510537l1.68-3.62c.7683989.2463963 1.4674904.6713343 2.04 1.24.5754244.5671908 1.001437 1.2680503 1.24 2.04z" fill="#a4c2f7"/><path id="Shape" d="m1 45c0 3.3137085 2.6862915 6 6 6h3c-3.3137085 0-6-2.6862915-6-6v-22c0-3.3137085 2.6862915-6 6-6h-3c-3.3137085 0-6 2.6862915-6 6z" fill="#fff"/><path id="Shape" d="m23.6 51.794 4.821 6.406c.5683595.7632937 1.6011097 1.0111706 2.454.589.2473653-.112006.4611127-.2867962.62-.507-.024-.029-.051-.052-.074-.082l-4.821-6.406c-.3783418-.5020983-.9713192-.7963633-1.6-.794l-3-.0000141c.6286808-.0023492 1.2216582.2919158 1.6.7940141z" fill="#fff"/><path id="Rectangle-path" d="m0 23h2v8h-2z" fill="#fff"/><g fill="#428dff"><circle id="Oval" cx="1" cy="27" r="1"/><path id="Shape" d="m53 16c-.5522847 0-1 .4477153-1 1s.4477153 1 1 1c2.7600532.0033061 4.9966939 2.2399468 5 5v22c-.0033061 2.7600532-2.2399468 4.9966939-5 5h-15c-.9439012.0015673-1.8324054.4458194-2.4 1.2l-4.821 6.4c-.1808935.2501185-.4708227.3982414-.7795.3982414s-.5986065-.1481229-.7795-.3982414l-4.82-6.408c-.5691558-.751291-1.4574628-1.1924835-2.4-1.192h-15c-2.76005315-.0033061-4.99669388-2.2399468-5-5v-14c0-.5522847-.44771525-1-1-1s-1 .4477153-1 1v14c.00495836 3.8639376 3.13606244 6.9950416 7 7h15c.3150937-.0014324.6120897.1470655.8.4l4.822 6.4c.5578533.7540752 1.440008 1.1992331 2.378 1.2.9373636-.0010812 1.8187774-.4462397 2.376-1.2l4.824-6.4c.1888544-.2518058.4852427-.4.8-.4h15c3.8639376-.0049584 6.9950416-3.1360624 7-7v-22c-.0049584-3.8639376-3.1360624-6.9950416-7-7z"/><path id="Shape" d="m0 23c0 .5522847.44771525 1 1 1s1-.4477153 1-1c.00330612-2.7600532 2.23994685-4.9966939 5-5h23c.5522847 0 1-.4477153 1-1s-.4477153-1-1-1h-23c-3.86393756.0049584-6.99504164 3.1360624-7 7z"/><path id="Shape" d="m57.828 8.3c1.5615278-1.56199941 1.5615278-4.09400059 0-5.656l-1.414-1.417c-1.5821292-1.51213879-4.0738708-1.51213879-5.656 0l-4.95 4.949-21.916 21.917c-.0828998.083266-.1505875.1803979-.2.287l-3.715 8.02c-.3944556.7683567-.2424254 1.7040521.375 2.308.3717169.3780161.8788475.5921699 1.409.595.3028975-.0004885.6014947-.0717135.872-.208l8.038-3.723c.1068011-.0490652.2039909-.1167933.287-.2l21.921-21.92zm-5.656-5.659c.791167-.75581397 2.036833-.75581397 2.828 0l1.414 1.414c.7807639.7809997.7807639 2.0470003 0 2.828l-4.242 4.243-1.415-1.415.708-.711c.3530417-.39605424.3353217-.99888375-.0403743-1.37351689-.3756959-.37463313-.9785732-.39064539-1.3736257-.03648311l-.708.707-1.414-1.414zm-26.758 26.772c.4011968-.2829014.9467904-.2409327 1.3.1.1772348.1772382.2814476.414572.292.665.0506117 1.0116195.8593805 1.8203883 1.871 1.871.3692413.0160788.6995075.2345069.8588215.5679986s.121696.7276637-.0978215 1.0250014l-3.307 1.523c-.5449774-1.0490012-1.4011101-1.9037366-2.451-2.447zm-3.636 7.849 1.264-2.728c.6205335.3384954 1.1315525.847086 1.473 1.466zm27.565-23.307c-.3923789-.3789722-1.0160848-.3735524-1.4018186.0121814s-.3911536 1.0094397-.0121814 1.4018186l-16.394 16.393c-.4581417-.9998577-1.4363559-1.6601041-2.535-1.711-.0401464-.735208-.3498911-1.4298194-.87-1.951-.2450133-.2393267-.5317299-.4318268-.846-.568l16.4-16.4 1.416 1.408c.3923789.3789722 1.0160848.3735524 1.4018186-.0121814s.3911536-1.0094397.0121814-1.4018186l-1.414-1.415 1.415-1.411 2.119 2.119 2.119 2.119z"/><path id="Shape" d="m54.293 6.176c.2860606-.28597424.3716717-.71611576.2169084-1.08982722-.1547633-.37371147-.5194187-.61738633-.9239084-.61738633s-.7691451.24367486-.9239084.61738633c-.1547633.37371146-.0691522.80385298.2169084 1.08982722.3904999.39038194 1.0235001.39038194 1.414 0z"/><path id="Shape" d="m42.979 14.661-12.728 12.729c-.2759624.2473987-.3924625.6271353-.3027205.9867291.0897421.3595939.3710063.6400624.7308529.7287854s.7392517-.0288524.9858676-.3055145l12.729-12.725c.2525868-.2527654.3511378-.6210837.25853-.966213-.0926079-.3451292-.3623054-.6146361-.7075-.707-.3451947-.0923638-.7134432.0064476-.96603.259213z"/><path id="Shape" d="m6 21c-.55228475 0-1 .4477153-1 1s.44771525 1 1 1h1c.55228475 0 1-.4477153 1-1s-.44771525-1-1-1z"/><path id="Shape" d="m26 22c0-.5522847-.4477153-1-1-1h-14c-.5522847 0-1 .4477153-1 1s.4477153 1 1 1h14c.5522847 0 1-.4477153 1-1z"/><path id="Shape" d="m52 47h2c.5522847 0 1-.4477153 1-1s-.4477153-1-1-1h-2c-.5522847 0-1 .4477153-1 1s.4477153 1 1 1z"/><path id="Shape" d="m38 45c-.5522847 0-1 .4477153-1 1s.4477153 1 1 1h10c.5522847 0 1-.4477153 1-1s-.4477153-1-1-1z"/></g></g></g></svg>